<svg width="760" height="430" viewBox="0 0 760 430" fill="none" xmlns="http://www.w3.org/2000/svg">
<path d="M3.3125 265L22.625 173.625H41.75L34.1875 209.438H63.625L71.1875 173.625H90.25L70.9375 265H51.8125L60.1875 225.562H30.75L22.375 265H3.3125ZM115 266.25C111.625 266.25 108.438 265.417 105.438 263.75C102.438 262.083 99.9792 259.396 98.0625 255.688C96.1875 251.979 95.25 247.062 95.25 240.938C95.25 236.354 95.7292 231.812 96.6875 227.312C97.6875 222.812 99.1042 218.562 100.938 214.562C102.812 210.521 105.062 206.958 107.688 203.875C110.354 200.75 113.354 198.292 116.688 196.5C120.062 194.708 123.708 193.812 127.625 193.812C130.583 193.812 133.167 194.25 135.375 195.125C137.583 195.958 139.479 197.146 141.062 198.688C142.646 200.229 143.938 202.021 144.938 204.062H145.438L149 195.125H163.5L148.625 265H134.562L135.438 255.938H134.938C133.271 257.979 131.458 259.771 129.5 261.312C127.542 262.854 125.375 264.062 123 264.938C120.625 265.812 117.958 266.25 115 266.25ZM122.375 251.062C124.958 251.062 127.354 250.062 129.562 248.062C131.771 246.021 133.667 243.375 135.25 240.125C136.833 236.875 137.958 233.438 138.625 229.812C138.958 228.146 139.188 226.479 139.312 224.812C139.479 223.104 139.562 221.271 139.562 219.312C139.562 216.354 138.771 213.917 137.188 212C135.646 210.042 133.521 209.062 130.812 209.062C128.979 209.062 127.229 209.667 125.562 210.875C123.938 212.042 122.438 213.667 121.062 215.75C119.688 217.792 118.479 220.146 117.438 222.812C116.438 225.438 115.667 228.229 115.125 231.188C114.583 234.146 114.312 237.104 114.312 240.062C114.312 243.688 115.021 246.438 116.438 248.312C117.854 250.146 119.833 251.062 122.375 251.062ZM197.375 266.25C192.542 266.25 188.146 265.396 184.188 263.688C180.271 261.938 177.146 259.188 174.812 255.438C172.521 251.646 171.375 246.688 171.375 240.562C171.375 235.521 171.896 230.688 172.938 226.062C173.979 221.438 175.521 217.167 177.562 213.25C179.604 209.333 182.125 205.938 185.125 203.062C188.125 200.146 191.562 197.875 195.438 196.25C199.312 194.625 203.625 193.812 208.375 193.812C212.542 193.812 216.271 194.208 219.562 195C222.896 195.792 226 196.896 228.875 198.312L223.125 212.625C220.875 211.667 218.667 210.833 216.5 210.125C214.333 209.417 211.875 209.062 209.125 209.062C206.167 209.062 203.521 209.917 201.188 211.625C198.896 213.333 196.938 215.625 195.312 218.5C193.729 221.375 192.521 224.604 191.688 228.188C190.854 231.729 190.438 235.333 190.438 239C190.438 241.625 190.854 243.833 191.688 245.625C192.562 247.417 193.792 248.771 195.375 249.688C197 250.604 198.938 251.062 201.188 251.062C204.354 251.062 207.292 250.583 210 249.625C212.708 248.625 215.5 247.396 218.375 245.938V261.312C215.458 262.854 212.312 264.062 208.938 264.938C205.562 265.812 201.708 266.25 197.375 266.25ZM229.938 265L250.562 167.75H269.375L260.125 211.125C259.833 212.5 259.438 214.083 258.938 215.875C258.438 217.667 257.938 219.375 257.438 221C256.938 222.583 256.562 223.854 256.312 224.812H256.812L285.125 195.125H306.625L275.5 226.625L293.312 265H272.312L260.875 238.75L253.375 243.25L248.75 265H229.938ZM322.75 266.25C318.292 266.25 314.396 265.938 311.062 265.312C307.771 264.688 304.688 263.646 301.812 262.188V246.688C304.938 248.479 308.146 249.875 311.438 250.875C314.771 251.833 318.208 252.312 321.75 252.312C323.708 252.312 325.542 252.042 327.25 251.5C329 250.958 330.417 250.125 331.5 249C332.583 247.875 333.125 246.458 333.125 244.75C333.125 243.583 332.854 242.542 332.312 241.625C331.771 240.708 330.729 239.708 329.188 238.625C327.688 237.5 325.5 236.146 322.625 234.562C319.75 232.938 317.292 231.271 315.25 229.562C313.25 227.854 311.708 225.917 310.625 223.75C309.583 221.583 309.062 219.042 309.062 216.125C309.062 211.292 310.125 207.229 312.25 203.938C314.375 200.604 317.417 198.083 321.375 196.375C325.375 194.667 330.146 193.812 335.688 193.812C339.729 193.812 343.625 194.271 347.375 195.188C351.125 196.104 354.792 197.625 358.375 199.75L352.188 213.188C349.729 211.688 347.104 210.438 344.312 209.438C341.562 208.438 338.812 207.938 336.062 207.938C334.021 207.938 332.188 208.417 330.562 209.375C328.938 210.333 328.125 211.812 328.125 213.812C328.125 214.896 328.417 215.896 329 216.812C329.583 217.688 330.562 218.583 331.938 219.5C333.354 220.417 335.25 221.5 337.625 222.75C340.458 224.208 342.958 225.833 345.125 227.625C347.333 229.375 349.062 231.417 350.312 233.75C351.562 236.042 352.188 238.771 352.188 241.938C352.188 247.271 350.979 251.75 348.562 255.375C346.146 258.958 342.729 261.667 338.312 263.5C333.938 265.333 328.75 266.25 322.75 266.25Z" fill="#16E19C"/>
<path d="M511.297 41.2117C526.978 -13.7372 604.852 -13.7372 620.533 41.2117C628.946 70.688 659.229 88.172 688.962 80.719C744.39 66.8252 783.327 134.266 743.58 175.321C722.259 197.344 722.259 232.312 743.58 254.335C783.327 295.39 744.39 362.831 688.962 348.937C659.229 341.484 628.946 358.968 620.533 388.444C604.852 443.393 526.978 443.393 511.297 388.444C502.884 358.968 472.601 341.484 442.868 348.937C387.44 362.831 348.503 295.39 388.25 254.335C409.571 232.312 409.571 197.344 388.25 175.321C348.503 134.266 387.44 66.8252 442.868 80.719C472.601 88.172 502.884 70.688 511.297 41.2117Z" fill="#16E19C"/>
<path d="M472.188 266.25C464.812 266.25 458.646 264.792 453.688 261.875C448.729 258.917 444.979 254.771 442.438 249.438C439.938 244.062 438.688 237.729 438.688 230.438C438.688 225.062 439.292 219.625 440.5 214.125C441.75 208.625 443.625 203.375 446.125 198.375C448.625 193.333 451.812 188.854 455.688 184.938C459.562 181.021 464.146 177.917 469.438 175.625C474.729 173.333 480.771 172.188 487.562 172.188C493.354 172.188 498.271 172.729 502.312 173.812C506.354 174.896 510.396 176.542 514.438 178.75L507.062 194.375C504.104 192.667 501.062 191.229 497.938 190.062C494.854 188.896 491.396 188.312 487.562 188.312C483.438 188.312 479.771 189.146 476.562 190.812C473.354 192.479 470.583 194.75 468.25 197.625C465.958 200.458 464.062 203.667 462.562 207.25C461.062 210.792 459.938 214.479 459.188 218.312C458.479 222.146 458.125 225.854 458.125 229.438C458.125 236.354 459.562 241.521 462.438 244.938C465.312 248.312 469.854 250 476.062 250C479.521 250 483.021 249.562 486.562 248.688C490.104 247.771 493.646 246.604 497.188 245.188V261.438C494.646 262.438 491.229 263.5 486.938 264.625C482.688 265.708 477.771 266.25 472.188 266.25ZM511.688 265L532.312 167.75H551.125L530.5 265H511.688ZM572.062 266.25C568.062 266.25 564.75 265.438 562.125 263.812C559.5 262.188 557.542 259.875 556.25 256.875C554.958 253.833 554.312 250.271 554.312 246.188C554.312 244.646 554.438 242.667 554.688 240.25C554.938 237.833 555.312 235.375 555.812 232.875L563.75 195.125H582.562L574 235.938C573.708 237.354 573.458 238.688 573.25 239.938C573.083 241.188 573 242.333 573 243.375C573 246 573.562 247.938 574.688 249.188C575.812 250.438 577.5 251.062 579.75 251.062C582.625 251.062 585.188 249.854 587.438 247.438C589.729 244.979 591.729 241.708 593.438 237.625C595.146 233.5 596.521 228.979 597.562 224.062L603.688 195.125H622.5L607.688 265H593.312L594.625 252.062H593.938C592.146 254.812 590.167 257.271 588 259.438C585.875 261.562 583.5 263.229 580.875 264.438C578.25 265.646 575.312 266.25 572.062 266.25ZM662.875 266.25C659.958 266.25 657.396 265.833 655.188 265C652.979 264.125 651.083 262.938 649.5 261.438C647.958 259.896 646.667 258.104 645.625 256.062H645.125L641.5 265H627.062L647.688 167.75H666.5L662.625 185.75C662.25 187.458 661.771 189.458 661.188 191.75C660.604 194 659.979 196.271 659.312 198.562C658.646 200.812 658 202.771 657.375 204.438H657.875C659.375 202.562 660.938 200.812 662.562 199.188C664.188 197.562 666.042 196.271 668.125 195.312C670.25 194.312 672.729 193.812 675.562 193.812C678.938 193.812 682.125 194.646 685.125 196.312C688.125 197.979 690.562 200.667 692.438 204.375C694.312 208.083 695.25 213.021 695.25 219.188C695.25 223.729 694.75 228.271 693.75 232.812C692.792 237.312 691.375 241.562 689.5 245.562C687.667 249.562 685.417 253.125 682.75 256.25C680.125 259.375 677.146 261.833 673.812 263.625C670.479 265.375 666.833 266.25 662.875 266.25ZM659.688 251.062C661.521 251.062 663.271 250.479 664.938 249.312C666.604 248.104 668.125 246.479 669.5 244.438C670.875 242.354 672.062 240 673.062 237.375C674.062 234.708 674.833 231.896 675.375 228.938C675.917 225.979 676.188 223.021 676.188 220.062C676.188 216.396 675.5 213.646 674.125 211.812C672.792 209.979 670.75 209.062 668 209.062C666 209.062 664.167 209.583 662.5 210.625C660.875 211.667 659.438 213.083 658.188 214.875C656.938 216.625 655.854 218.604 654.938 220.812C654.021 223.021 653.271 225.292 652.688 227.625C652.104 229.917 651.667 232.146 651.375 234.312C651.125 236.479 651 238.396 651 240.062C651 243.354 651.771 246.021 653.312 248.062C654.896 250.062 657.021 251.062 659.688 251.062Z" fill="white"/>
</svg>
